<?xml version="1.0" encoding="utf-8"?>
<!-- Generator: Adobe Illustrator 22.0.1, SVG Export Plug-In . SVG Version: 6.00 Build 0)  -->
<svg version="1.1" id="Layer_1" xmlns="http://www.w3.org/2000/svg" xmlns:xlink="http://www.w3.org/1999/xlink" x="0px" y="0px"
	 viewBox="0 0 20.3 20.3" style="enable-background:new 0 0 20.3 20.3;" xml:space="preserve">
<style type="text/css">
	.st0{fill:#0084B4;}
</style>
<path class="st0" d="M18.2,0.2h-16c-1.1,0-2,0.9-2,2v16c0,1.1,0.9,2,2,2h16c1.1,0,2-0.9,2-2v-16C20.2,1.1,19.3,0.2,18.2,0.2z
	 M15.8,7c0,0.1,0,0.2,0,0.4c0,3.8-2.9,8.2-8.2,8.2c-1.6,0-3.1-0.5-4.4-1.3c0.2,0,0.5,0,0.7,0c1.3,0,2.6-0.5,3.6-1.2
	c-1.3,0-2.3-0.9-2.7-2c0.2,0,0.4,0.1,0.5,0.1c0.3,0,0.5,0,0.8-0.1c-1.3-0.3-2.3-1.4-2.3-2.8l0,0c0.4,0.2,0.8,0.3,1.3,0.4
	C4.3,8,3.8,7.2,3.8,6.2c0-0.5,0.1-1,0.4-1.4c1.4,1.7,3.5,2.9,5.9,3c0-0.2-0.1-0.4-0.1-0.7c0-1.6,1.3-2.9,2.9-2.9
	c0.8,0,1.6,0.3,2.1,0.9c0.7-0.1,1.3-0.4,1.8-0.7c-0.2,0.7-0.7,1.2-1.3,1.6c0.6-0.1,1.1-0.2,1.7-0.5C16.8,6.1,16.3,6.6,15.8,7z"/>
</svg>