<svg xmlns="http://www.w3.org/2000/svg" xmlns:xlink="http://www.w3.org/1999/xlink" xmlns:sketch="http://www.bohemiancoding.com/sketch/ns" width="120px" height="120px" viewBox="0 0 120 120" version="1.1">
    <g id="Page-1" stroke="none" stroke-width="1" fill="none" fill-rule="evenodd" sketch:type="MSPage">
        <path d="M120,108 C120,114.6 114.6,120 108,120 L12,120 C5.4,120 0,114.6 0,108 L0,12 C0,5.4 5.4,0 12,0 L108,0 C114.6,0 120,5.4 120,12 L120,108 L120,108 Z" id="Shape" fill="#004225" sketch:type="MSShapeGroup"/>
        <path xmlns="http://www.w3.org/2000/svg" fill="#ffffff" d="M16.8000002,8.80000019 C16.8000002,13.2184002 13.2184002,16.8000002 8.80000019,16.8000002 C4.38160019,16.8000002 0.800000191,13.2184002 0.800000191,8.80000019 C0.800000191,4.38160019 4.38160019,0.800000191 8.80000019,0.800000191 C13.2184002,0.800000191 16.8000002,4.38160019 16.8000002,8.80000019 Z M12.6072002,14.2424002 C12.8736002,14.2528002 13.1168002,14.2424002 13.3376002,14.2160002 C13.4952002,14.0832002 13.6488002,13.9432002 13.7952002,13.7952002 C15.1296002,12.4608002 15.8648002,10.6872002 15.8648002,8.80000019 C15.8648002,6.91280019 15.1296002,5.13920019 13.7952002,3.80480019 C12.4616002,2.47040019 10.6872002,1.73600019 8.80000019,1.73600019 C6.91280019,1.73600019 5.13920019,2.47040019 3.80480019,3.80480019 C2.47040019,5.13920019 1.73600019,6.91280019 1.73600019,8.80000019 C1.73600019,10.6872002 2.47040019,12.4608002 3.80480019,13.7952002 C5.13920019,15.1296002 6.91280019,15.8648002 8.80000019,15.8648002 C9.73600019,15.8648002 10.6440002,15.6840002 11.4848002,15.3392002 C11.2832002,15.2976002 11.0920002,15.2416002 10.9360002,15.1704002 C10.5568002,14.9984002 10.1968002,14.8112002 9.85840019,14.6080002 C9.51840019,14.4040002 9.19280019,14.2168002 8.88160019,14.0448002 C8.56960019,13.8728002 8.26240019,13.7872002 7.95920019,13.7872002 C7.75120019,13.7872002 7.58320019,13.8264002 7.45600019,13.9072002 C7.32800019,13.9872002 7.21200019,14.0768002 7.10880019,14.1768002 C7.00480019,14.2760002 6.90640019,14.3656002 6.81520019,14.4464002 C6.72320019,14.5256002 6.60960019,14.5656002 6.47360019,14.5656002 C6.24160019,14.5656002 6.12640019,14.4656002 6.12640019,14.2664002 C6.12640019,14.2104002 6.13360019,14.1624002 6.14960019,14.1232002 C6.16560019,14.0824002 6.20000019,14.0360002 6.25200019,13.9848002 C6.30400019,13.9328002 6.38160019,13.8728002 6.48560019,13.8048002 C6.58960019,13.7368002 6.73280019,13.6512002 6.91680019,13.5480002 L8.47440019,12.6608002 C7.80320019,12.6368002 7.18000019,12.4952002 6.60560019,12.2352002 C6.03040019,11.9760002 5.53520019,11.6288002 5.12000019,11.1928002 C4.70480019,10.7576002 4.37840019,10.2512002 4.14400019,9.67200019 C3.90800019,9.09280019 3.79040019,8.47280019 3.79040019,7.80880019 C3.79040019,7.12240019 3.91760019,6.48400019 4.17360019,5.89200019 C4.42880019,5.30160019 4.78000019,4.79040019 5.22800019,4.35920019 C5.67520019,3.92800019 6.20160019,3.58880019 6.80880019,3.34080019 C7.41600019,3.09360019 8.07040019,2.96960019 8.77360019,2.96960019 C9.47680019,2.96960019 10.1312002,3.09360019 10.7384002,3.34080019 C11.3448002,3.58880019 11.8720002,3.92800019 12.3200002,4.35920019 C12.7664002,4.79040019 13.1184002,5.30000019 13.3736002,5.88640019 C13.6288002,6.47360019 13.7576002,7.10720019 13.7576002,7.78560019 C13.7576002,8.53600019 13.6032002,9.22080019 13.2952002,9.84000019 C12.9888002,10.4584002 12.5792002,10.9912002 12.0680002,11.4392002 C11.7320002,11.7264002 11.3576002,11.9680002 10.9416002,12.1640002 C10.5264002,12.3592002 10.0912002,12.5416002 9.63600019,12.7088002 C9.42080019,12.7968002 9.21120019,12.8888002 9.00720019,12.9848002 C8.80320019,13.0808002 8.61760019,13.1920002 8.45040019,13.3200002 L8.45040019,13.3672002 C8.49760019,13.3592002 8.56400019,13.3544002 8.64800019,13.3504002 C8.73120019,13.3456002 8.80560019,13.3440002 8.86960019,13.3440002 C9.22880019,13.3440002 9.56400019,13.3904002 9.87520019,13.4816002 C10.1872002,13.5736002 10.4904002,13.6776002 10.7864002,13.7928002 C11.0816002,13.9088002 11.3768002,14.0128002 11.6728002,14.1048002 C11.9680002,14.1960002 12.2792002,14.2424002 12.6072002,14.2424002 Z M7.37120019,11.6816002 C7.78400019,11.8760002 8.24720019,11.9736002 8.76160019,11.9736002 C9.27600019,11.9736002 9.73680019,11.8760002 10.1464002,11.6816002 C10.5552002,11.4872002 10.9056002,11.2080002 11.1976002,10.8464002 C11.4904002,10.4840002 11.7136002,10.0480002 11.8696002,9.53760019 C12.0256002,9.02720019 12.1032002,8.45280019 12.1032002,7.81360019 C12.1032002,7.19040019 12.0256002,6.62720019 11.8696002,6.12480019 C11.7136002,5.62320019 11.4920002,5.19440019 11.2032002,4.84000019 C10.9160002,4.48560019 10.5648002,4.21280019 10.1520002,4.02240019 C9.73920019,3.83120019 9.27600019,3.73600019 8.76160019,3.73600019 C8.24720019,3.73600019 7.78400019,3.83120019 7.37120019,4.02240019 C6.95840019,4.21280019 6.60800019,4.48560019 6.31920019,4.84000019 C6.03120019,5.19440019 5.80960019,5.62320019 5.65360019,6.12480019 C5.49760019,6.62720019 5.42000019,7.19040019 5.42000019,7.81360019 C5.42000019,8.45280019 5.49760019,9.02720019 5.65360019,9.53760019 C5.80960019,10.0480002 6.03120019,10.4840002 6.31920019,10.8464002 C6.60800019,11.2080002 6.95840019,11.4872002 7.37120019,11.6816002 Z" transform="translate(16,16), scale(5)"/>
    </g>
</svg>