<?xml version="1.0" encoding="utf-8"?>
<!-- Generator: Adobe Illustrator 22.0.1, SVG Export Plug-In . SVG Version: 6.00 Build 0)  -->
<svg version="1.1" id="Layer_1" xmlns="http://www.w3.org/2000/svg" xmlns:xlink="http://www.w3.org/1999/xlink" x="0px" y="0px"
	 viewBox="0 0 100 100" style="enable-background:new 0 0 100 100;" xml:space="preserve">
<style type="text/css">
	.st0{fill:#DA2724;}
	.st1{fill:#FFFFFF;}
	.st2{fill:#E8E0E0;}
</style>
<g>
	<g>
		<path class="st0" d="M84,80.5c-22.7,1.3-45.3,1.3-68,0c-4.4-0.3-8.5-4.1-9-8.5C5.5,57.3,5.5,42.7,7,28c0.5-4.4,4.6-8.2,9-8.5
			c22.7-1.3,45.3-1.3,68,0c4.4,0.3,8.5,4.1,9,8.5c1.5,14.7,1.5,29.3,0,44C92.5,76.4,88.4,80.2,84,80.5z"/>
	</g>
	<polygon class="st1" points="41,36.6 64.7,49 41,61.4 	"/>
	<polygon class="st2" points="61.7,50.6 64.7,49 41.8,37 	"/>
</g>
</svg>