<?xml version="1.0" encoding="utf-8"?>
<!-- Generator: Adobe Illustrator 22.0.1, SVG Export Plug-In . SVG Version: 6.00 Build 0)  -->
<svg version="1.1" id="Layer_1" xmlns="http://www.w3.org/2000/svg" xmlns:xlink="http://www.w3.org/1999/xlink" x="0px" y="0px"
	 viewBox="0 0 100 100" style="enable-background:new 0 0 100 100;" xml:space="preserve">
<style type="text/css">
	.st0{fill:#FFFFFF;}
</style>
<g>
	<path class="st0" d="M94.4,80.1h-89c-2.6,0-4.9,2.1-4.9,4.9c0,2.6,2.1,4.9,4.9,4.9h89c2.6,0,4.9-2.1,4.9-4.9
		C99.3,82.2,97.2,80.1,94.4,80.1z M7,70.2h56.1v-6.6c0-1.8,1.5-3.3,3.3-3.3h16.5c1.8,0,3.3,1.5,3.3,3.3v6.6h6.6
		c1.8,0,3.3-1.5,3.3-3.3V10.8c0-1.8-1.5-3.3-3.3-3.3H7c-1.8,0-3.3,1.5-3.3,3.3v56.1C3.7,68.7,5.2,70.2,7,70.2z M21.8,27.3
		c0-1.8,1.5-3.3,3.3-3.3H73c1.8,0,3.3,1.5,3.3,3.3v3.3c0,1.8-1.5,3.3-3.3,3.3H25.1c-1.8,0-3.3-1.5-3.3-3.3V27.3z M21.8,47.1
		c0-1.8,1.5-3.3,3.3-3.3h31.3c1.8,0,3.3,1.5,3.3,3.3v3.3c0,1.8-1.5,3.3-3.3,3.3H25.1c-1.8,0-3.3-1.5-3.3-3.3V47.1z"/>
</g>
</svg>
